<svg xmlns="http://www.w3.org/2000/svg" width="602.641" height="505.395" viewBox="0 0 602.641 505.395"><defs><style>.a{fill:#d6f2f2;}</style></defs><path class="a" d="M12074.538,2389.127c39.674-5.6,57.026-6.484,93.672,6.945s43.9,24.491,54.331,30.892c11,6.754,21.359,15.982,31.445,24.662,28.289,24.356,64.557,29.7,99.023,28.4,16.219-.615,32.889-2.464,48.324,3.748,11.291,4.544,21.211,13.163,30.334,22.562,24.855,25.618,45.514,59.036,53.432,97.819,9.588,46.939-.428,97.465-19.664,139.636-7.895,17.308-17.7,34.01-31.441,44.317-11.27,8.452-24.457,12.057-37.488,14.524-23.357,4.421-47.271,5.595-70.572.757-15.727-3.267-31.127-9.254-47.041-10.515-55.893-4.43-102.531,47.964-152.6,78.97-19.209,11.893-40.437,20.981-61.818,18.383-29.453-3.577-54.34-28.636-73.531-56.475s-34.8-59.612-56.508-84.466c-7.687-8.8-16.082-16.658-23.281-26.059-42.934-56.042-25.264-131.79,12.959-180.206,21.871-27.7,33.518-64.982,56.438-90.967C12005.143,2424.165,12041.79,2393.752,12074.538,2389.127Z" transform="translate(-11886.145 -2385.276)"/></svg>